<svg width="22" height="22" viewBox="0 0 22 22" fill="none" xmlns="http://www.w3.org/2000/svg">
<path d="M18.3897 11H8.51974M5.03589 11H3.61072M5.03589 11C5.03589 10.5381 5.21937 10.0952 5.54597 9.76855C5.87257 9.44195 6.31553 9.25847 6.77742 9.25847C7.2393 9.25847 7.68226 9.44195 8.00886 9.76855C8.33546 10.0952 8.51894 10.5381 8.51894 11C8.51894 11.4619 8.33546 11.9048 8.00886 12.2314C7.68226 12.558 7.2393 12.7415 6.77742 12.7415C6.31553 12.7415 5.87257 12.558 5.54597 12.2314C5.21937 11.9048 5.03589 11.4619 5.03589 11ZM18.3897 16.2781H13.7978M13.7978 16.2781C13.7978 16.7401 13.6139 17.1835 13.2872 17.5102C12.9606 17.8369 12.5175 18.0204 12.0555 18.0204C11.5936 18.0204 11.1507 17.8361 10.8241 17.5095C10.4975 17.1829 10.314 16.74 10.314 16.2781M13.7978 16.2781C13.7978 15.8161 13.6139 15.3734 13.2872 15.0468C12.9606 14.7201 12.5175 14.5366 12.0555 14.5366C11.5936 14.5366 11.1507 14.72 10.8241 15.0466C10.4975 15.3732 10.314 15.8162 10.314 16.2781M10.314 16.2781H3.61072M18.3897 5.7219H15.9092M12.4254 5.7219H3.61072M12.4254 5.7219C12.4254 5.26002 12.6089 4.81706 12.9355 4.49046C13.2621 4.16386 13.705 3.98038 14.1669 3.98038C14.3956 3.98038 14.6221 4.02542 14.8334 4.11294C15.0447 4.20046 15.2366 4.32874 15.3984 4.49046C15.5601 4.65217 15.6883 4.84416 15.7759 5.05545C15.8634 5.26674 15.9084 5.4932 15.9084 5.7219C15.9084 5.9506 15.8634 6.17706 15.7759 6.38835C15.6883 6.59964 15.5601 6.79163 15.3984 6.95334C15.2366 7.11506 15.0447 7.24334 14.8334 7.33086C14.6221 7.41838 14.3956 7.46342 14.1669 7.46342C13.705 7.46342 13.2621 7.27994 12.9355 6.95334C12.6089 6.62675 12.4254 6.18378 12.4254 5.7219Z" stroke="white" stroke-width="1.36551" stroke-miterlimit="10" stroke-linecap="round"/>
</svg>
