<svg width="116" height="20" viewBox="0 0 116 20" fill="none" xmlns="http://www.w3.org/2000/svg">
<path d="M11.4411 2.92495L12.9078 5.85828C13.1078 6.26662 13.6411 6.65828 14.0911 6.73328L16.7494 7.17495C18.4494 7.45828 18.8494 8.69162 17.6244 9.90829L15.5578 11.975C15.2078 12.325 15.0161 13 15.1244 13.4833L15.7161 16.0416C16.1828 18.0666 15.1078 18.85 13.3161 17.7916L10.8244 16.3166C10.3744 16.05 9.63277 16.05 9.17444 16.3166L6.68277 17.7916C4.89944 18.85 3.8161 18.0583 4.28277 16.0416L4.87444 13.4833C4.98277 13 4.7911 12.325 4.4411 11.975L2.37444 9.90829C1.15777 8.69162 1.54944 7.45828 3.24944 7.17495L5.90777 6.73328C6.34944 6.65828 6.88277 6.26662 7.08277 5.85828L8.54944 2.92495C9.34944 1.33328 10.6494 1.33328 11.4411 2.92495Z" fill="#FAC151"/>
<path d="M35.4411 2.92495L36.9078 5.85828C37.1078 6.26662 37.6411 6.65828 38.0911 6.73328L40.7494 7.17495C42.4494 7.45828 42.8494 8.69162 41.6244 9.90829L39.5578 11.975C39.2078 12.325 39.0161 13 39.1244 13.4833L39.7161 16.0416C40.1828 18.0666 39.1078 18.85 37.3161 17.7916L34.8244 16.3166C34.3744 16.05 33.6328 16.05 33.1744 16.3166L30.6828 17.7916C28.8994 18.85 27.8161 18.0583 28.2828 16.0416L28.8744 13.4833C28.9828 13 28.7911 12.325 28.4411 11.975L26.3744 9.90829C25.1578 8.69162 25.5494 7.45828 27.2494 7.17495L29.9078 6.73328C30.3494 6.65828 30.8828 6.26662 31.0828 5.85828L32.5494 2.92495C33.3494 1.33328 34.6494 1.33328 35.4411 2.92495Z" fill="#FAC151"/>
<path d="M59.4411 2.92495L60.9078 5.85828C61.1078 6.26662 61.6411 6.65828 62.0911 6.73328L64.7494 7.17495C66.4494 7.45828 66.8494 8.69162 65.6244 9.90829L63.5578 11.975C63.2078 12.325 63.0161 13 63.1244 13.4833L63.7161 16.0416C64.1828 18.0666 63.1078 18.85 61.3161 17.7916L58.8244 16.3166C58.3744 16.05 57.6328 16.05 57.1744 16.3166L54.6828 17.7916C52.8994 18.85 51.8161 18.0583 52.2828 16.0416L52.8744 13.4833C52.9828 13 52.7911 12.325 52.4411 11.975L50.3744 9.90829C49.1578 8.69162 49.5494 7.45828 51.2494 7.17495L53.9078 6.73328C54.3494 6.65828 54.8828 6.26662 55.0828 5.85828L56.5494 2.92495C57.3494 1.33328 58.6494 1.33328 59.4411 2.92495Z" fill="#FAC151"/>
<path d="M83.4411 2.92495L84.9078 5.85828C85.1078 6.26662 85.6411 6.65828 86.0911 6.73328L88.7494 7.17495C90.4494 7.45828 90.8494 8.69162 89.6244 9.90829L87.5578 11.975C87.2078 12.325 87.0161 13 87.1244 13.4833L87.7161 16.0416C88.1828 18.0666 87.1078 18.85 85.3161 17.7916L82.8244 16.3166C82.3744 16.05 81.6328 16.05 81.1744 16.3166L78.6828 17.7916C76.8994 18.85 75.8161 18.0583 76.2828 16.0416L76.8744 13.4833C76.9828 13 76.7911 12.325 76.4411 11.975L74.3744 9.90829C73.1578 8.69162 73.5494 7.45828 75.2494 7.17495L77.9078 6.73328C78.3494 6.65828 78.8828 6.26662 79.0828 5.85828L80.5494 2.92495C81.3494 1.33328 82.6494 1.33328 83.4411 2.92495Z" fill="#FAC151"/>
<path d="M107.441 2.92495L108.908 5.85828C109.108 6.26662 109.641 6.65828 110.091 6.73328L112.749 7.17495C114.449 7.45828 114.849 8.69162 113.624 9.90829L111.558 11.975C111.208 12.325 111.016 13 111.124 13.4833L111.716 16.0416C112.183 18.0666 111.108 18.85 109.316 17.7916L106.824 16.3166C106.374 16.05 105.633 16.05 105.174 16.3166L102.683 17.7916C100.899 18.85 99.8161 18.0583 100.283 16.0416L100.874 13.4833C100.983 13 100.791 12.325 100.441 11.975L98.3744 9.90829C97.1578 8.69162 97.5494 7.45828 99.2494 7.17495L101.908 6.73328C102.349 6.65828 102.883 6.26662 103.083 5.85828L104.549 2.92495C105.349 1.33328 106.649 1.33328 107.441 2.92495Z" fill="#D2D2D2"/>
</svg>
