<svg width="29" height="30" viewBox="0 0 29 30" fill="none" xmlns="http://www.w3.org/2000/svg">
<g clip-path="url(#clip0_140_2833)">
<path d="M4.8335 8.95841C4.8335 8.31747 5.08811 7.70279 5.54132 7.24957C5.99453 6.79636 6.60922 6.54175 7.25016 6.54175H21.7502C22.3911 6.54175 23.0058 6.79636 23.459 7.24957C23.9122 7.70279 24.1668 8.31747 24.1668 8.95841V23.4584C24.1668 24.0994 23.9122 24.714 23.459 25.1673C23.0058 25.6205 22.3911 25.8751 21.7502 25.8751H7.25016C6.60922 25.8751 5.99453 25.6205 5.54132 25.1673C5.08811 24.714 4.8335 24.0994 4.8335 23.4584V8.95841Z" stroke="white" stroke-width="1.5" stroke-linecap="round" stroke-linejoin="round"/>
<path d="M19.3335 4.125V8.95833" stroke="white" stroke-width="1.5" stroke-linecap="round" stroke-linejoin="round"/>
<path d="M9.6665 4.125V8.95833" stroke="white" stroke-width="1.5" stroke-linecap="round" stroke-linejoin="round"/>
<path d="M4.8335 13.7917H24.1668" stroke="white" stroke-width="1.5" stroke-linecap="round" stroke-linejoin="round"/>
<path d="M8.4585 17.4167H8.4715" stroke="white" stroke-width="1.5" stroke-linecap="round" stroke-linejoin="round"/>
<path d="M12.0952 17.4167H12.1002" stroke="white" stroke-width="1.5" stroke-linecap="round" stroke-linejoin="round"/>
<path d="M15.7202 17.4167H15.7252" stroke="white" stroke-width="1.5" stroke-linecap="round" stroke-linejoin="round"/>
<path d="M19.3516 17.4167H19.3566" stroke="white" stroke-width="1.5" stroke-linecap="round" stroke-linejoin="round"/>
<path d="M15.7266 21.0417H15.7316" stroke="white" stroke-width="1.5" stroke-linecap="round" stroke-linejoin="round"/>
<path d="M8.47021 21.0417H8.47521" stroke="white" stroke-width="1.5" stroke-linecap="round" stroke-linejoin="round"/>
<path d="M12.0952 21.0417H12.1002" stroke="white" stroke-width="1.5" stroke-linecap="round" stroke-linejoin="round"/>
</g>
<defs>
<clipPath id="clip0_140_2833">
<rect width="29" height="29" fill="white" transform="translate(0 0.5)"/>
</clipPath>
</defs>
</svg>
