<svg width="34" height="37" viewBox="0 0 34 37" fill="none" xmlns="http://www.w3.org/2000/svg">
<path d="M24.112 35.2326C22.3214 33.1418 19.9693 31.8732 17.3932 31.8732C14.8171 31.8732 12.4649 33.1418 10.6743 35.2326" stroke="#6319FF" stroke-width="2.62912" stroke-linecap="round"/>
<path d="M17.3917 20.116C15.2617 20.116 13.0095 20.4844 11.244 20.9774C9.91463 21.3486 8.84527 23.0412 9.00995 24.4153C9.07096 24.9244 9.50935 25.1551 9.9703 25.1551H24.8132C25.2741 25.1551 25.7125 24.9244 25.7735 24.4153C25.9382 23.0412 24.8688 21.3486 23.5395 20.9774C21.774 20.4844 19.5218 20.116 17.3917 20.116Z" stroke="#6319FF" stroke-width="2.62912" stroke-linecap="round"/>
<path d="M32.5094 15.0767C30.654 15.0767 29.15 16.5807 29.15 18.4361V20.1158C29.15 21.9712 27.6459 23.4752 25.7905 23.4752" stroke="#6319FF" stroke-width="2.62912" stroke-linecap="round" stroke-linejoin="round"/>
<path d="M2.2743 15.0767C4.12966 15.0767 5.63373 16.5807 5.63373 18.4361V20.1158C5.63373 21.9712 7.1378 23.4752 8.99316 23.4752" stroke="#6319FF" stroke-width="2.62912" stroke-linecap="round" stroke-linejoin="round"/>
<path d="M17.3936 25.1553V35.2336" stroke="#6319FF" stroke-width="2.62912" stroke-linecap="round" stroke-linejoin="round"/>
<path d="M18.7687 15.0773H16.0148C13.6596 15.0773 12.482 15.0773 11.6301 14.3657C10.7782 13.6542 10.4926 12.4321 9.92139 9.98796C9.02327 6.145 8.57421 4.22352 9.51722 2.93152C10.4602 1.63953 12.3118 1.63953 16.0148 1.63953H18.7687C22.4717 1.63953 24.3233 1.63953 25.2663 2.93152C26.2093 4.22352 25.7602 6.145 24.8621 9.98796C24.2909 12.4321 24.0053 13.6542 23.1534 14.3657C22.3015 15.0773 21.1239 15.0773 18.7687 15.0773Z" stroke="#6319FF" stroke-width="2.62912" stroke-linecap="round" stroke-linejoin="round"/>
<path d="M17.3936 15.0767V20.1158" stroke="#6319FF" stroke-width="2.62912" stroke-linecap="round" stroke-linejoin="round"/>
</svg>
