<svg width="24" height="25" viewBox="0 0 24 25" fill="none" xmlns="http://www.w3.org/2000/svg">
<g clip-path="url(#clip0_140_659)">
<path d="M13 3.5C13.7652 3.49996 14.5015 3.79233 15.0583 4.31728C15.615 4.84224 15.9501 5.56011 15.995 6.324L16 6.5V10.5H18C18.7351 10.4999 19.4447 10.7697 19.994 11.2582C20.5434 11.7467 20.8942 12.4199 20.98 13.15L20.995 13.324L21 13.5L20.98 13.696L19.974 18.728C19.593 20.354 18.472 21.524 17.164 21.508L17 21.5H9C8.75507 21.5 8.51866 21.41 8.33563 21.2473C8.15259 21.0845 8.03566 20.8603 8.007 20.617L8 20.5L8.001 10.964C8.00118 10.7886 8.04747 10.6164 8.13523 10.4646C8.22299 10.3128 8.34913 10.1867 8.501 10.099C8.92742 9.85272 9.28662 9.50519 9.54684 9.08713C9.80706 8.66907 9.96029 8.19335 9.993 7.702L10 7.5V6.5C10 5.70435 10.3161 4.94129 10.8787 4.37868C11.4413 3.81607 12.2044 3.5 13 3.5Z" fill="#7F7F7F"/>
<path d="M5 10.5C5.24493 10.5 5.48134 10.59 5.66437 10.7527C5.84741 10.9155 5.96434 11.1397 5.993 11.383L6 11.5V20.5C5.99997 20.7449 5.91004 20.9813 5.74728 21.1644C5.58453 21.3474 5.36025 21.4643 5.117 21.493L5 21.5H4C3.49542 21.5002 3.00943 21.3096 2.63945 20.9665C2.26947 20.6234 2.04284 20.1532 2.005 19.65L2 19.5V12.5C1.99984 11.9954 2.19041 11.5094 2.5335 11.1395C2.87659 10.7695 3.34684 10.5428 3.85 10.505L4 10.5H5Z" fill="#7F7F7F"/>
</g>
<defs>
<clipPath id="clip0_140_659">
<rect width="24" height="24" fill="white" transform="translate(0 0.5)"/>
</clipPath>
</defs>
</svg>
