<svg width="24" height="25" viewBox="0 0 24 25" fill="none" xmlns="http://www.w3.org/2000/svg">
<g clip-path="url(#clip0_140_665)">
<path d="M11.9997 4.5C16.2897 4.5 19.8627 6.929 22.6647 11.654L22.8847 12.033L22.9297 12.133L22.9597 12.216L22.9737 12.271L22.9877 12.353L22.9987 12.453V12.563L22.9847 12.674C22.9781 12.7111 22.9694 12.7479 22.9587 12.784L22.9197 12.892L22.8837 12.967L22.8677 12.997C20.1037 17.833 16.5677 20.377 12.3127 20.496L11.9997 20.5C7.60368 20.5 3.96268 17.951 1.13168 12.996C1.04539 12.8449 1 12.674 1 12.5C1 12.326 1.04539 12.1551 1.13168 12.004C3.96268 7.049 7.60368 4.5 11.9997 4.5ZM11.9997 9.5C11.204 9.5 10.441 9.81607 9.87836 10.3787C9.31575 10.9413 8.99968 11.7044 8.99968 12.5C8.99968 13.2956 9.31575 14.0587 9.87836 14.6213C10.441 15.1839 11.204 15.5 11.9997 15.5C12.7953 15.5 13.5584 15.1839 14.121 14.6213C14.6836 14.0587 14.9997 13.2956 14.9997 12.5C14.9997 11.7044 14.6836 10.9413 14.121 10.3787C13.5584 9.81607 12.7953 9.5 11.9997 9.5Z" fill="#7F7F7F"/>
</g>
<defs>
<clipPath id="clip0_140_665">
<rect width="24" height="24" fill="white" transform="translate(0 0.5)"/>
</clipPath>
</defs>
</svg>
